Coordinates
version=1
nRows=4
nColumns=63
inDegrees=yes

Units are S.I. units (second, meters, Newtons, ...)
If the header above contains a line with 'inDegrees', this indicates whether rotational values are in degrees (yes) or radians (no).

endheader
time	pelvis_tilt	pelvis_list	pelvis_rotation	pelvis_tx	pelvis_ty	pelvis_tz	hip_flexion_r	hip_adduction_r	hip_rotation_r	knee_angle_r	knee_angle_r_beta	ankle_angle_r	subtalar_angle_r	mtp_angle_r	hip_flexion_l	hip_adduction_l	hip_rotation_l	knee_angle_l	knee_angle_l_beta	ankle_angle_l	subtalar_angle_l	mtp_angle_l	L5_S1_Flex_Ext	L5_S1_Lat_Bending	L5_S1_axial_rotation	L4_L5_Flex_Ext	L4_L5_Lat_Bending	L4_L5_axial_rotation	L3_L4_Flex_Ext	L3_L4_Lat_Bending	L3_L4_axial_rotation	L2_L3_Flex_Ext	L2_L3_Lat_Bending	L2_L3_axial_rotation	L1_L2_Flex_Ext	L1_L2_Lat_Bending	L1_L2_axial_rotation	L1_T12_Flex_Ext	L1_T12_Lat_Bending	L1_T12_axial_rotation	Abs_r3	Abs_r2	Abs_r1	Abs_t1	Abs_t2	neck_flexion	neck_bending	neck_rotation	arm_flex_r	arm_add_r	arm_rot_r	elbow_flex_r	pro_sup_r	wrist_flex_r	wrist_dev_r	arm_flex_l	arm_add_l	arm_rot_l	elbow_flex_l	pro_sup_l	wrist_flex_l	wrist_dev_l
      2.21666667	     -1.91200266	     -5.77567978	     93.18803808	      0.32163614	      0.79974756	      0.57565132	     -3.87896395	      0.05625080	      2.09949961	      4.10496943	      0.07164523	     15.29258453	     -5.18520818	      0.00000000	      0.49841554	     -3.03891162	      2.40722880	     10.73597528	      0.18737812	     18.84188671	      1.33986089	      0.00000000	     -0.09746082	      0.65942148	      0.06111158	     -0.18099448	      0.87703057	      0.06493105	     -0.16011838	      1.60331739	      0.06493105	     -0.11138797	      1.60331739	      0.05347263	     -0.09050211	      1.34469229	      0.04965316	     -0.05568911	      1.02144388	      0.04583369	     -0.69615286	      7.45950770	      0.33988428	      0.00000000	      0.00000000	     14.85889496	     -3.07709989	      6.26164810	     11.27514461	     -8.68733543	    152.63758722	      1.27917082	      2.57284794	      0.24802185	    -13.02349849	     37.34448909	    -29.30110135	    -14.96967259	    133.18915293	     84.41506850	     -4.68095870	     -6.21192220
      2.23333333	     -2.04812405	     -5.93351448	     92.74742891	      0.32199854	      0.79951431	      0.57591798	     -4.31944443	     -0.13670811	      3.43776829	      2.74839313	      0.04796851	     14.88998353	     -5.80162048	      0.00000000	      0.43679935	     -2.94651748	      1.20193036	     10.34032495	      0.18047272	     18.97543975	      2.45547812	      0.00000000	     -0.08431213	      0.63948663	     -0.01650130	     -0.15657606	      0.85051722	     -0.01753263	     -0.13851640	      1.55484779	     -0.01753263	     -0.09636034	      1.55484779	     -0.01443864	     -0.07829225	      1.30404114	     -0.01340731	     -0.04817595	      0.99056479	     -0.01237598	     -0.60223314	      7.23400066	     -0.09177529	      0.00000000	      0.00000000	     15.53413779	     -2.15299127	      7.72775329	     11.64285263	     -8.50775530	    152.58334713	      1.51210235	      2.47211530	      0.55237329	    -12.89725882	     36.57507897	    -30.00291315	    -18.47104784	    136.02685815	     83.66126545	     -6.62511837	     -9.57408303
      2.25000000	     -2.19481351	     -6.03519373	     92.06248391	      0.32244496	      0.79934868	      0.57670658	     -4.60233516	     -0.40135651	      4.40152162	      1.62539599	      0.02836851	     14.89671429	     -5.49671372	      0.00000000	      0.36238733	     -2.76683860	      0.49292228	     10.04964654	      0.17539942	     18.94639734	      2.54857846	      0.00000000	     -0.08554825	      0.62639150	     -0.01201485	     -0.15887165	      0.83310069	     -0.01276578	     -0.14054721	      1.52300828	     -0.01276578	     -0.09777309	      1.52300828	     -0.01051299	     -0.07944010	      1.27733754	     -0.00976207	     -0.04888227	      0.97028043	     -0.00901114	     -0.61106257	      7.08586588	     -0.06682299	      0.00000000	      0.00000000	     16.14296955	     -1.78888875	      8.74345487	     12.02502114	     -8.44283555	    151.39509949	      1.90354294	      2.30165922	      1.07635090	    -12.66783276	     36.12775437	    -30.24348246	    -22.02882825	    138.47636568	     83.56812142	     -8.48661195	    -12.20960770
      2.26666667	     -2.33114307	     -6.13702427	     91.15317265	      0.32320455	      0.79910744	      0.57807076	     -4.59874576	     -0.66571365	      5.33212259	      0.90304301	      0.01576107	     15.14544026	     -5.03069348	      0.00000000	      0.33373120	     -2.61340051	     -0.49962721	      9.84716470	      0.17186545	     18.95299183	      2.71583432	      0.00000000	     -0.09497090	      0.61668119	      0.08964276	     -0.17637045	      0.82018599	      0.09524543	     -0.15602769	      1.49939865	      0.09524543	     -0.10854224	      1.49939865	      0.07843741	     -0.08818998	      1.25753629	      0.07283474	     -0.05426637	      0.95523917	      0.06723207	     -0.67836762	      6.97602098	      0.49856612	      0.00000000	      0.00000000	     16.83742978	     -1.21877926	      9.86867080	     12.38353290	     -8.47755194	    148.98834913	      2.46360113	      2.13217230	      1.73865306	    -12.40881319	     36.16907074	    -30.26975695	    -24.74051153	    140.37028400	     83.70463069	    -11.38078133	    -14.46646739
